Coordinates
version=1
nRows=7
nColumns=40
inDegrees=yes

Units are S.I. units (second, meters, Newtons, ...)
Angles are in degrees.

endheader
time	pelvis_tilt	pelvis_list	pelvis_rotation	pelvis_tx	pelvis_ty	pelvis_tz	hip_flexion_r	hip_adduction_r	hip_rotation_r	knee_angle_r	knee_angle_r_beta	ankle_angle_r	subtalar_angle_r	mtp_angle_r	hip_flexion_l	hip_adduction_l	hip_rotation_l	knee_angle_l	knee_angle_l_beta	ankle_angle_l	subtalar_angle_l	mtp_angle_l	lumbar_extension	lumbar_bending	lumbar_rotation	arm_flex_r	arm_add_r	arm_rot_r	elbow_flex_r	pro_sup_r	wrist_flex_r	wrist_dev_r	arm_flex_l	arm_add_l	arm_rot_l	elbow_flex_l	pro_sup_l	wrist_flex_l	wrist_dev_l
     49.52800000	     -2.04872673	     -4.48869009	      7.09202727	      1.04008034	      0.93292124	      0.48124481	      6.29639839	      2.87300569	    -17.10598242	     13.47269035	     13.47269035	     10.81770639	     -2.30873327	     -6.66389621	     31.21197519	    -11.81458893	     -0.33149614	     39.73227508	     39.73227508	     11.66271773	    -18.53021303	     15.23932738	     -9.86512157	      6.43933063	      2.62579366	     31.98521552	    -19.90884244	     -5.24339755	     67.90868612	     44.96859707	      0.00000000	      0.00000000	     -2.86160197	     -7.83811608	      0.49615620	     24.44693218	     45.50741216	      0.00000000	      0.00000000
     49.54100000	     -2.05124527	     -4.38550771	      7.50917097	      1.03931285	      0.93291601	      0.48066631	      5.81088978	      2.81049058	    -17.42644548	     13.19251541	     13.19251541	     10.99423562	     -2.32394696	     -6.77362035	     31.29232667	    -11.17227844	     -0.12309652	     36.65240053	     36.65240053	     11.36161268	    -18.15816074	     15.07810857	    -10.01872514	      6.39144972	      2.49856840	     33.13839917	    -19.82681294	     -5.96274630	     70.12884755	     44.93146567	      0.00000000	      0.00000000	     -3.99865601	     -7.73495159	      0.76008013	     23.99520011	     45.44166359	      0.00000000	      0.00000000
     49.55400000	     -2.19525018	     -4.34994615	      7.85217651	      1.03846116	      0.93253199	      0.47995691	      5.53158685	      2.77850931	    -17.63779141	     12.99141797	     12.99141797	     11.16561757	     -2.26035283	     -6.88992383	     31.56261855	    -10.53991946	      0.35463602	     33.87606692	     33.87606692	     11.22094326	    -17.46921850	     14.70764433	     -9.97107379	      6.36500303	      2.74114104	     34.27512990	    -20.09124624	     -6.64993517	     71.73506357	     44.91357829	      0.00000000	      0.00000000	     -4.94414171	     -7.55057672	      0.99567713	     23.77623833	     45.38202263	      0.00000000	      0.00000000
     49.56700000	     -2.30012304	     -4.36986066	      8.19005585	      1.03770694	      0.93213631	      0.47916232	      5.19766677	      2.79518811	    -18.01894474	     12.77258157	     12.77258157	     11.33406145	     -2.01555844	     -7.12654245	     31.67282533	    -10.01864494	      0.81458973	     31.07101735	     31.07101735	     10.05024125	    -16.68837944	     11.86148339	    -10.03837461	      6.42150159	      3.52441168	     34.53611245	    -20.57834439	     -8.58840342	     74.81037883	     44.92259122	      0.00000000	      0.00000000	     -5.72424963	     -7.54987588	      2.49466803	     24.06731902	     45.10869597	      0.00000000	      0.00000000
     49.58000000	     -2.42198392	     -4.33050885	      8.46656429	      1.03694200	      0.93179210	      0.47827240	      4.87940894	      2.76434049	    -18.18915299	     12.55423931	     12.55423931	     11.53140523	     -2.00379508	     -7.16629679	     31.85806996	     -9.46529761	      1.30408892	     28.77211079	     28.77211079	     10.05917243	    -15.30844780	     11.94210954	    -10.01747069	      6.38376896	      3.55429618	     35.79978806	    -20.66733798	     -8.82967310	     75.64912161	     44.91375241	      0.00000000	      0.00000000	     -6.62667241	     -7.39731880	      2.69494820	     23.77458637	     45.05996465	      0.00000000	      0.00000000
     49.59300000	     -2.56846964	     -4.34482556	      8.71612616	      1.03626322	      0.93136215	      0.47732085	      4.58500177	      2.78065777	    -18.38266505	     12.32884998	     12.32884998	     11.71222289	     -1.90962192	     -7.20983957	     32.07618468	     -9.00636398	      1.79570815	     26.80001257	     26.80001257	     10.01015594	    -13.81400800	     11.95888559	     -9.95676831	      6.39968226	      3.64404537	     36.95478902	    -20.74429873	     -9.10929123	     76.46164653	     44.90517781	      0.00000000	      0.00000000	     -7.44711133	     -7.22512504	      2.82567222	     23.61540445	     45.02291378	      0.00000000	      0.00000000
     49.60600000	     -2.57206752	     -4.31968992	      8.92136085	      1.03588108	      0.93116034	      0.47627122	      4.01909270	      2.79037737	    -18.65124512	     11.92973435	     11.92973435	     11.88622841	     -1.48665268	     -7.23327307	     32.08586155	     -8.63618176	      2.02103788	     25.14023304	     25.14023304	      9.89793108	    -12.08621021	     11.61269592	    -10.09331600	      6.36188313	      3.53078485	     37.93585928	    -20.48151104	     -9.60342475	     77.67896030	     44.89415911	      0.00000000	      0.00000000	     -8.47839072	     -7.14598341	      3.05037056	     23.69866100	     44.96555115	      0.00000000	      0.00000000
